{"title":"Curse.Of.Chucky.2013.UNRATED.WEB-DL.X264.AC3 - BiTo","uid":8956759,"size":1301580813,"categoryP":"video","categoryS":"movies","magnet":"?xt=urn:btih:7df323f925f1e96e0c6f71027e61cd0be176d132&amp;dn=Curse.Of.Chucky.2013.UNRATED.WEB-DL.X264.AC3+-+BiTo&amp;tr=udp%3A%2F%2Ftracker.openbittorrent.com%3A80&amp;tr=udp%3A%2F%2Fopen.demonii.com%3A1337&amp;tr=udp%3A%2F%2Ftracker.coppersurfer.tk%3A6969&amp;tr=udp%3A%2F%2Fexodus.desync.com%3A6969","seeders":1,"leechers":0,"uploader":"xxxlavalxxx","files":-1,"time":1380014828,"description":" &lt;a href=&quot;\nhttp://www.imdb.com/title/tt2230358/&quot; rel=&quot;nofollow&quot; target=&quot;_NEW&quot;&gt;\nhttp://www.imdb.com/title/tt2230358/&lt;/a&gt;\n\n\nAfter her mother's mysterious death, Nica begins to suspect that the talking, red-haired doll her visiting niece has been playing with may be the key to recent bloodshed and chaos. \n\n\n\nDirector:\n Don Mancini \n\nWriters:\n Don Mancini (characters), Don Mancini \n\nStars:\n Danielle Bisutti, Brad Dourif, Alex Vincent\n\nGenres:\n  Horror |  Thriller \n\nCountry:\n USA \n\nLanguage:\n English \n\n\n\nSource: Itunes\n Sample: Yes\n Codec: X264\n Container: Mkv\n\n Video\n ID                                       : 1\n Format                                   : AVC\n Format/Info                              : Advanced Video Codec\n Format profile                           : &lt;a class=&quot;__cf_email__&quot; href=&quot;/cdn-cgi/l/email-protection&quot; data-cfemail=&quot;0f476668674f433c213f&quot;&gt;[email&amp;#160;protected]&lt;/a&gt;&lt;script cf-hash='f9e31' type=&quot;text/javascript&quot;&gt;\n/* &lt;![CDATA[ */!function(){try{var t=&quot;currentScript&quot;in document?document.currentScript:function(){for(var t=document.getElementsByTagName(&quot;script&quot;),e=t.length;e--;)if(t[e].getAttribute(&quot;cf-hash&quot;))return t[e]}();if(t&amp;&amp;t.previousSibling){var e,r,n,i,c=t.previousSibling,a=c.getAttribute(&quot;data-cfemail&quot;);if(a){for(e=&quot;&quot;,r=parseInt(a.substr(0,2),16),n=2;a.length-n;n+=2)i=parseInt(a.substr(n,2),16)^r,e+=String.fromCharCode(i);e=document.createTextNode(e),c.parentNode.replaceChild(e,c)}}}catch(u){}}();/* ]]&gt; */&lt;/script&gt;\n Format settings, CABAC                   : Yes\n Format settings, ReFrames                : 4 frames\n Codec ID                                 : V_MPEG4/ISO/AVC\n Duration                                 : 1h 36mn\n Bit rate                                 : 1 400 Kbps\n Width                                    : 720 pixels\n Height                                   : 400 pixels\n Display aspect ratio                     : 16:9\n Original display aspect ratio            : 16:9\n Frame rate mode                          : Constant\n Frame rate                               : 23.976 fps\n Color space                              : YUV\n Chroma subsampling                       : 4:2:0\n Bit depth                                : 8 bits\n Scan type                                : Progressive\n Bits/(Pixel*Frame)                       : 0.203\n Stream size                              : 940 MiB (63%)\n Writing library                          : x264 core 120\n Default                                  : Yes\n Forced                                   : No\n Color primaries                          : BT.709\n Transfer characteristics                 : BT.709\n Matrix coefficients                      : BT.709\n\n Audio #1\n ID                                       : 2\n Format                                   : AC-3\n Format/Info                              : Audio Coding 3\n Mode extension                           : CM (complete main)\n Format settings, Endianness              : Big\n Codec ID                                 : A_AC3\n Duration                                 : 1h 36mn\n Bit rate mode                            : Constant\n Bit rate                                 : 384 Kbps\n Channel(s)                               : 6 channels\n Channel positions                        : Front: L C R, Side: L R, LFE\n Sampling rate                            : 48.0 KHz\n Bit depth                                : 16 bits\n Compression mode                         : Lossy\n Stream size                              : 266 MiB (18%)\n Language                                 : English\n Default                                  : Yes\n Forced                                   : No\n\n\n\n &lt;a href=&quot;\nhttp://bayimg.com/capGBaAEP&quot; rel=&quot;nofollow&quot; target=&quot;_NEW&quot;&gt;\nhttp://bayimg.com/capGBaAEP&lt;/a&gt; &lt;a href=&quot;\nhttp://bayimg.com/CApGcAAEp&quot; rel=&quot;nofollow&quot; target=&quot;_NEW&quot;&gt;\nhttp://bayimg.com/CApGcAAEp&lt;/a&gt;","torrent":{"xt":"urn:btih:7df323f925f1e96e0c6f71027e61cd0be176d132","amp;dn":"Curse.Of.Chucky.2013.UNRATED.WEB-DL.X264.AC3+-+BiTo","amp;tr":["udp%3A%2F%2Ftracker.openbittorrent.com%3A80","udp%3A%2F%2Fopen.demonii.com%3A1337","udp%3A%2F%2Ftracker.coppersurfer.tk%3A6969","udp%3A%2F%2Fexodus.desync.com%3A6969"],"infoHash":"7df323f925f1e96e0c6f71027e61cd0be176d132","infoHashBuffer":{"type":"Buffer","data":[125,243,35,249,37,241,233,110,12,111,113,2,126,97,205,11,225,118,209,50]},"announce":[],"urlList":[]}}